<svg xmlns="http://www.w3.org/2000/svg" viewBox="0 0 512 512" role="img" aria-labelledby="title desc">
  <title id="title">Autograph Exchange maskable icon</title>
  <desc id="desc">A keepsake card and signature flourish on a deep teal field.</desc>
  <rect width="512" height="512" rx="128" fill="#0f766e"/>
  <rect x="112" y="120" width="288" height="272" rx="32" fill="#f8fafc"/>
  <circle cx="180" cy="188" r="20" fill="#67e8f9"/>
  <rect x="214" y="170" width="126" height="16" rx="8" fill="#cbd5e1"/>
  <rect x="152" y="228" width="208" height="14" rx="7" fill="#e2e8f0"/>
  <rect x="152" y="262" width="168" height="14" rx="7" fill="#e2e8f0"/>
  <path d="M170 330c22-30 41-45 58-45 21 0 26 24 43 24 14 0 29-13 45-39 17 4 31 16 40 35-25 28-53 42-83 42-35 0-69-5-103-17Z" fill="#22c55e"/>
  <path d="M192 330c20 9 39 13 58 13 24 0 46-10 66-29" fill="none" stroke="#0f766e" stroke-linecap="round" stroke-linejoin="round" stroke-width="18"/>
</svg>
