<svg xmlns="http://www.w3.org/2000/svg" viewBox="0 0 512 512" role="img" aria-labelledby="title desc">
  <title id="title">Autograph Exchange icon</title>
  <desc id="desc">A teal keepsake card with a handwritten signature flourish.</desc>
  <defs>
    <linearGradient id="bg" x1="0%" x2="100%" y1="0%" y2="100%">
      <stop offset="0%" stop-color="#ccfbf1"/>
      <stop offset="100%" stop-color="#0369a1"/>
    </linearGradient>
  </defs>
  <rect width="512" height="512" rx="120" fill="url(#bg)"/>
  <rect x="104" y="112" width="304" height="288" rx="36" fill="#ffffff" opacity="0.96"/>
  <circle cx="172" cy="184" r="22" fill="#99f6e4"/>
  <rect x="208" y="164" width="140" height="18" rx="9" fill="#cbd5e1"/>
  <rect x="144" y="226" width="224" height="16" rx="8" fill="#e2e8f0"/>
  <rect x="144" y="264" width="182" height="16" rx="8" fill="#e2e8f0"/>
  <path d="M160 336c23-34 44-51 63-51 24 0 28 26 47 26 15 0 31-14 47-42 18 5 32 18 41 39-27 30-58 46-92 46-39 0-73-6-106-18Z" fill="#14b8a6"/>
  <path d="M186 334c22 10 43 15 64 15 26 0 49-11 69-32" fill="none" stroke="#0f766e" stroke-linecap="round" stroke-linejoin="round" stroke-width="20"/>
</svg>
